<svg width="583" height="377" viewBox="0 0 583 377" fill="none" xmlns="http://www.w3.org/2000/svg">
<path fill-rule="evenodd" clip-rule="evenodd" d="M0.000488281 102.721L291.368 6.10352e-05L583 102.721L291.368 207.053L0.000488281 102.721ZM291.375 169.259C306.955 169.259 319.585 156.629 319.585 141.049C319.585 125.47 306.955 112.84 291.375 112.84C275.796 112.84 263.166 125.47 263.166 141.049C263.166 156.629 275.796 169.259 291.375 169.259Z" fill="black"/>
<path d="M56.9218 132.272C132.148 161.109 263.606 244.484 263.606 376.129C235.605 356.487 155.969 318.707 75.7282 319.71V160.795C75.7282 147.944 66.9519 141.299 56.9218 132.272Z" fill="black"/>
<path d="M526.582 132.272C451.356 161.109 319.898 244.484 319.898 376.129C347.899 356.487 427.535 318.707 507.776 319.71V160.795C507.776 147.944 516.552 141.299 526.582 132.272Z" fill="black"/>
</svg>
